# xmcd CD database file
#
# Track frame offsets:
#	150
#	15458
#	31421
#	46096
#	66657
#	87010
#	101901
#	112805
#	123673
#	136163
#	151700
#	162275
#	179201
#	189220
#	212529
#	227591
#	245768
#	262511
#	276441
#	291499
#	304775
#	317399
#
# Disc length: 4404 seconds
#
# Revision: 0
# Processed by: cddbd v1.5.2PL0 Copyright (c) Steve Scherf et al.
# Submitted via: CDex 1.70beta2
#
DISCID=2d113216
DTITLE=Various Artist - Original Folk Class
DYEAR=2004
DGENRE=Country
TTITLE0=The Sound of Silence
TTITLE1=You Needed Me
TTITLE2=Take Me Home, Country Roads
TTITLE3=How Can I Tell Her
TTITLE4=You've Got A Friend
TTITLE5=Banks of The Ohio
TTITLE6=Yesterday
TTITLE7=For Baby
TTITLE8=All For The Love Of A Girl
TTITLE9=Puff, The Magic Dragon
TTITLE10=The Last Leaf
TTITLE11=Let It Be
TTITLE12=Wednesday Morning 3 A.M.
TTITLE13=If You Could Read My Mind
TTITLE14=Fire And Rain
TTITLE15=Amazing Grace
TTITLE16=Angela
TTITLE17=Tom Dooley
TTITLE18=Wild World
TTITLE19=Whispering Pines
TTITLE20=The Sun Is Burning
TTITLE21=Summertime
EXTD=YEAR: 2004
EXTT0=
EXTT1=
EXTT2=
EXTT3=
EXTT4=
EXTT5=
EXTT6=
EXTT7=
EXTT8=
EXTT9=
EXTT10=
EXTT11=
EXTT12=
EXTT13=
EXTT14=
EXTT15=
EXTT16=
EXTT17=
EXTT18=
EXTT19=
EXTT20=
EXTT21=
PLAYORDER=
